<?xml version="1.0" encoding="UTF-8" standalone="no"?>
<!-- Created with Inkscape (http://www.inkscape.org/) -->

<svg
   xmlns:dc="http://purl.org/dc/elements/1.1/"
   xmlns:cc="http://creativecommons.org/ns#"
   xmlns:rdf="http://www.w3.org/1999/02/22-rdf-syntax-ns#"
   xmlns:svg="http://www.w3.org/2000/svg"
   xmlns="http://www.w3.org/2000/svg"
   xmlns:sodipodi="http://sodipodi.sourceforge.net/DTD/sodipodi-0.dtd"
   xmlns:inkscape="http://www.inkscape.org/namespaces/inkscape"
   width="600"
   height="600"
   viewBox="0 0 600.00001 600.00001"
   id="svg6209"
   version="1.1"
   inkscape:version="0.91 r13725"
   sodipodi:docname="tête_de_chat.svg">
  <defs
     id="defs6211" />
  <sodipodi:namedview
     id="base"
     pagecolor="#ffffff"
     bordercolor="#666666"
     borderopacity="1.0"
     inkscape:pageopacity="0.0"
     inkscape:pageshadow="2"
     inkscape:zoom="1.4"
     inkscape:cx="399.56028"
     inkscape:cy="248.44144"
     inkscape:document-units="px"
     inkscape:current-layer="layer1"
     showgrid="false"
     units="px"
     inkscape:window-width="1920"
     inkscape:window-height="1061"
     inkscape:window-x="-4"
     inkscape:window-y="-4"
     inkscape:window-maximized="1" />
  <metadata
     id="metadata6214">
    <rdf:RDF>
      <cc:Work
         rdf:about="">
        <dc:format>image/svg+xml</dc:format>
        <dc:type
           rdf:resource="http://purl.org/dc/dcmitype/StillImage" />
        <dc:title></dc:title>
      </cc:Work>
    </rdf:RDF>
  </metadata>
  <g
     inkscape:label="Layer 1"
     inkscape:groupmode="layer"
     id="layer1"
     transform="translate(0,-452.36214)">
    <path
       style="fill:#000000;fill-rule:evenodd;stroke:#ffffff;stroke-width:1.5;stroke-linecap:round;stroke-linejoin:round;stroke-miterlimit:4;stroke-dasharray:none;stroke-opacity:1;fill-opacity:1"
       d="m 308.27837,988.54459 c 47.43923,-4.13029 94.76204,-18.80663 137.61018,-43.1602 34.32345,-23.85265 68.36741,-48.52455 95.29637,-84.54674 27.85331,-37.25872 26.71802,-62.36775 17.34562,-99.33749 -7.66865,-30.24849 -22.98141,-38.29909 -17.59305,-45.20732 15.14455,-19.41648 10.17398,-63.28239 21.39778,-90.96077 11.49964,-29.03987 30.2648,-65.75774 22.2261,-97.94482 -8.49688,-34.02179 -47.74329,16.13184 -68.5949,24.72123 -29.57418,13.44633 -28.41891,18.03262 -58.06842,30.23662 -57.05418,23.48404 -108.4271,-9.52142 -170.31709,-3.96624 -63.76457,5.72344 -99.7067,19.19865 -174.33216,-1.17047 -38.175199,-10.45425 -45.612726,-40.4485 -81.813881,-56.90298 -30.7234101,-7.98106 -14.020991,46.84459 -7.781304,62.4688 11.940785,32.97654 23.650313,50.46439 23.948766,89.36366 2.519757,28.49942 27.215256,52.10679 3.838285,78.88527 -15.177135,24.76447 -21.724084,56.14058 -14.342485,83.98606 6.604508,36.20438 26.486844,67.97379 54.497146,85.10885 36.381573,29.57958 73.559383,41.91074 116.049003,53.00058 32.86656,9.56447 66.56864,18.07665 100.63404,15.42596 z"
       id="path4199-5"
       inkscape:connector-curvature="0"
       sodipodi:nodetypes="ccssscscssccccccccc" />
    <path
       sodipodi:nodetypes="csc"
       style="fill:#000000;fill-opacity:1;fill-rule:evenodd;stroke:#ffffff;stroke-width:1.5;stroke-linecap:round;stroke-linejoin:round;stroke-miterlimit:4;stroke-dasharray:none;stroke-opacity:1"
       d="m 159.25931,561.64145 c 0,0 29.52144,35.9353 41.26994,53.97759 11.91956,18.30501 23.94919,46.47242 31.01482,67.97977"
       id="path4260-7"
       inkscape:connector-curvature="0" />
    <path
       style="fill:#000000;fill-opacity:1;fill-rule:evenodd;stroke:#ffffff;stroke-width:1.5;stroke-linecap:round;stroke-linejoin:round;stroke-miterlimit:4;stroke-dasharray:none;stroke-opacity:1"
       d="m 369.0486,683.15651 c 1.81947,-22.56908 18.07498,-56.56436 27.77129,-76.05389 8.74484,-19.57462 18.37036,-38.87533 31.22721,-59.4886"
       id="path4262-8"
       inkscape:connector-curvature="0"
       sodipodi:nodetypes="ccc" />
    <path
       sodipodi:nodetypes="ccc"
       style="fill:#000000;fill-opacity:1;fill-rule:evenodd;stroke:#ffffff;stroke-width:1.5;stroke-linecap:round;stroke-linejoin:round;stroke-miterlimit:4;stroke-dasharray:none;stroke-opacity:1"
       d="m 370.1757,688.90644 c 9.76292,-31.21289 27.23202,-55.58466 39.67606,-85.49537 5.22049,-13.007 22.18715,-43.51535 32.95278,-54.98683"
       id="path4264-9"
       inkscape:connector-curvature="0" />
    <path
       sodipodi:nodetypes="ccc"
       style="fill:#000000;fill-opacity:1;fill-rule:evenodd;stroke:#ffffff;stroke-width:1.5;stroke-linecap:round;stroke-linejoin:round;stroke-miterlimit:4;stroke-dasharray:none;stroke-opacity:1"
       d="m 374.30837,696.86789 c 10.21091,-30.11214 33.49198,-64.12658 45.55722,-93.29116 5.33482,-13.53132 19.51537,-36.03115 29.75649,-49.25597"
       id="path4266-9"
       inkscape:connector-curvature="0" />
    <path
       style="fill:#000000;fill-opacity:1;fill-rule:evenodd;stroke:#ffffff;stroke-width:1.5;stroke-linecap:round;stroke-linejoin:round;stroke-miterlimit:4;stroke-dasharray:none;stroke-opacity:1"
       d="m 373.55692,711.90617 c 54.89378,-107.5911 60.1299,-111.0363 97.99543,-157.45967"
       id="path4268-9"
       inkscape:connector-curvature="0"
       sodipodi:nodetypes="cc" />
    <path
       style="fill:none;fill-rule:evenodd;stroke:#ffffff;stroke-width:1.5;stroke-linecap:round;stroke-linejoin:round;stroke-miterlimit:4;stroke-dasharray:none;stroke-opacity:1;fill-opacity:1"
       d="m 257.4606,847.798 c -0.26068,-2.99229 1.99245,-3.4403 4.91465,-1.09463 2.92221,2.34566 4.649,3.28392 4.649,3.28392 0,0 -0.53334,-4.45401 2.12526,-6.68969 3.7192,-3.12755 20.81997,-5.75432 33.46163,-5.12591 11.91986,0.59252 20.56795,-0.95472 31.3623,1.39025 3.80828,0.82731 6.1064,7.2978 7.8332,7.2978 1.72676,0 2.65654,-5.00409 5.84443,-2.65842 3.18789,2.34565 -2.12529,8.28801 -9.96214,12.97933 -7.56469,4.52841 -12.75149,1.40741 -14.87678,5.31685 -2.12523,3.90943 -6.45708,25.26066 -19.26007,24.86402 -20.18994,-0.62551 -14.47833,-22.04924 -18.86167,-24.86402 -4.3833,-2.81481 -7.43837,-2.50205 -13.68131,-5.31685 -6.24292,-2.81479 -13.20216,-5.40744 -13.5485,-9.38265 z"
       id="path4471"
       inkscape:connector-curvature="0"
       sodipodi:nodetypes="sscsssssssssss" />
    <path
       sodipodi:nodetypes="csccccsccccscc"
       inkscape:connector-curvature="0"
       id="path5254"
       d="m 438.36044,636.38239 c -9.92489,-9.99202 8.75686,-19.94853 14.39131,-24.31222 18.33347,-14.19878 20.80316,-23.49733 46.3651,-42.22296 22.0038,-14.66087 24.53361,-15.65497 47.71317,-27.68131 8.19566,-1.08139 20.9124,-18.75397 29.06213,-13.20008 2.26363,9.87118 0.70399,25.16078 -1.96551,34.39984 -6.40508,19.31559 -7.32629,32.71431 -16.33532,50.26565 -6.21388,12.10586 -4.92705,20.97003 -7.71041,40.7267 -2.36036,13.05376 -3.8173,26.56953 -9.28906,38.48155 -3.52409,8.99472 -4.23293,22.3848 -13.71452,25.48465 -9.91144,4.82079 -8.5696,-13.49837 -9.92554,-22.85113 -3.07631,-10.28346 -1.17148,-11.62229 -9.31165,-24.9945 -7.99992,-13.14177 -13.45143,-25.23485 -27.26058,-27.52262 -13.49931,-3.34371 -29.11357,-0.4644 -42.01912,-6.57357 z"
       style="fill:none;fill-rule:evenodd;stroke:#ffffff;stroke-width:1.5;stroke-linecap:round;stroke-linejoin:round;stroke-miterlimit:4;stroke-dasharray:none;stroke-opacity:1;fill-opacity:1" />
    <path
       sodipodi:nodetypes="csc"
       style="fill:#000000;fill-opacity:1;fill-rule:evenodd;stroke:#ffffff;stroke-width:1.5;stroke-linecap:round;stroke-linejoin:round;stroke-miterlimit:4;stroke-dasharray:none;stroke-opacity:1"
       d="m 140.0526,561.20281 c 25.97582,25.02174 24.54156,23.88954 46.90472,57.83847 9.76541,14.82462 30.23128,52.1531 44.96245,76.94199"
       id="path4258-0"
       inkscape:connector-curvature="0" />
    <path
       sodipodi:nodetypes="cscc"
       style="fill:#000000;fill-opacity:1;fill-rule:evenodd;stroke:#ffffff;stroke-width:1.5;stroke-linecap:round;stroke-linejoin:round;stroke-miterlimit:4;stroke-dasharray:none;stroke-opacity:1"
       d="m 121.91784,560.60943 c 22.94276,18.56241 39.19681,33.75454 56.74621,58.18942 13.5568,18.87579 23.97896,35.59353 33.44256,52.08386 5.37536,9.73017 10.60855,19.57013 15.68051,29.52359"
       id="path4256-0"
       inkscape:connector-curvature="0" />
    <path
       style="fill:#000000;fill-opacity:1;fill-rule:evenodd;stroke:#ffffff;stroke-width:1.5;stroke-linecap:round;stroke-linejoin:round;stroke-miterlimit:4;stroke-dasharray:none;stroke-opacity:1"
       d="m 112.8243,571.25399 c 36.29919,29.75487 41.60722,35.13893 65.8388,62.69289 10.52658,16.37492 42.48224,65.4523 52.88097,81.94001"
       id="path4254-0"
       inkscape:connector-curvature="0"
       sodipodi:nodetypes="ccc" />
    <path
       style="fill:none;fill-rule:evenodd;stroke:#ffffff;stroke-width:1.5;stroke-linecap:round;stroke-linejoin:round;stroke-miterlimit:4;stroke-dasharray:none;stroke-opacity:1;fill-opacity:1"
       d="m 35.663732,827.04914 c 7.280162,14.51107 15.375035,30.70981 29.155144,37.46844 11.221734,4.59233 18.23309,-10.09011 20.446493,-20.77859 3.154957,-13.58563 5.497823,-27.41946 8.815187,-40.94211 2.273074,-17.45277 -1.732293,-38.16445 12.456364,-48.16355 14.64352,-10.90734 33.03014,-22.04954 50.68666,-23.0423 22.59291,-2.16659 35.57417,-4.56219 57.00027,3.92953 15.80026,5.18255 31.59809,34.12549 36.7982,51.00126 7.24588,21.21621 13.96895,34.15988 17.33337,56.56234"
       id="path4204-9"
       inkscape:connector-curvature="0"
       sodipodi:nodetypes="ccccccccc" />
    <path
       style="fill:none;fill-rule:evenodd;stroke:#ffffff;stroke-width:1.5;stroke-linecap:round;stroke-linejoin:round;stroke-miterlimit:4;stroke-dasharray:none;stroke-opacity:1;fill-opacity:1"
       d="m 111.42666,751.0071 c 0,0 11.42324,-1.40739 20.9869,6.09872 9.56362,7.50612 11.1921,23.19754 29.52241,29.7654 18.33032,6.56786 43.39755,25.49873 49.78006,27.28938 24.73926,6.9408 11.63643,-31.14223 11.63643,-31.14223"
       id="path4193-1"
       inkscape:connector-curvature="0"
       sodipodi:nodetypes="csssc" />
    <path
       style="fill:none;fill-rule:evenodd;stroke:#ffffff;stroke-width:1.5;stroke-linecap:round;stroke-linejoin:round;stroke-miterlimit:4;stroke-dasharray:none;stroke-opacity:1;fill-opacity:1"
       d="m 98.017464,766.28462 c 0,0 6.314496,36.35434 26.226336,45.64271 19.91185,9.28835 28.92856,13.26907 36.81816,18.13439 7.88961,4.86532 21.79032,28.74966 21.79032,28.74966"
       id="path4482"
       inkscape:connector-curvature="0"
       sodipodi:nodetypes="cssc" />
    <path
       style="fill:none;fill-rule:evenodd;stroke:#ffffff;stroke-width:1.5;stroke-linecap:round;stroke-linejoin:round;stroke-miterlimit:4;stroke-dasharray:none;stroke-opacity:1;fill-opacity:1"
       d="m 244.88573,794.31018 c 1.73704,-0.47179 -5.75183,-20.26213 -9.71882,-33.69064 -4.18544,-14.168 -22.23565,-23.61293 -34.09482,-26.68625 -12.31573,-3.21825 -24.76593,-2.7451 -36.70453,-0.47237 -8.89298,1.69293 -14.56899,3.63734 -22.88964,8.10312 -5.76142,3.42078 2.89225,4.96639 5.29532,6.16354 4.41124,1.1422 4.89148,6.86106 6.73723,10.79196 5.42457,13.14164 16.98146,21.30476 28.92256,23.63247 12.29386,2.40616 20.37178,5.86331 37.22751,1.72523 5.14316,-0.62929 13.49579,-6.32768 16.32995,-1.71021 2.08261,2.99096 5.17737,12.63421 8.89524,12.14315 z"
       id="path4178-8"
       inkscape:connector-curvature="0"
       sodipodi:nodetypes="cscsccccccc" />
    <path
       style="fill:#ffffff;fill-rule:evenodd;stroke:#ffffff;stroke-width:1.5;stroke-linecap:round;stroke-linejoin:round;stroke-miterlimit:4;stroke-dasharray:none;stroke-opacity:1;fill-opacity:1"
       d="m 180.9267,779.07766 c 12.22528,2.58514 25.06855,6.39748 37.3144,1.8978 6.21487,-2.6481 11.67082,-6.84173 13.8905,-13.99634 1.33593,-6.17941 -2.88773,-15.21123 -6.68603,-17.97373 -8.42569,-6.12802 -18.13701,-10.25748 -27.71797,-12.90855 -11.39764,-2.88458 -29.33217,-1.01141 -38.29772,2.20545 -4.71005,1.68998 -6.1195,6.00019 -6.09131,10.5088 0.0497,7.94096 7.575,16.97798 13.26339,20.52249 3.75785,3.70642 7.64782,7.36155 12.46919,8.95277 0.61651,0.27013 1.23543,0.53272 1.85555,0.79131 z"
       id="path4272-8"
       inkscape:connector-curvature="0"
       sodipodi:nodetypes="cccscssccc" />
    <path
       style="fill:#000000;fill-rule:evenodd;stroke:#ffffff;stroke-width:1.5;stroke-linecap:round;stroke-linejoin:round;stroke-miterlimit:4;stroke-dasharray:none;stroke-opacity:1;fill-opacity:1"
       d="m 194.76612,737.46859 c -6.6482,-0.2074 -9.21609,4.48197 -11.99195,9.46051 -2.44931,4.39288 -0.93404,11.96048 1.32382,16.06958 2.99566,5.45188 4.68845,9.56078 7.90187,9.38526 5.55257,-0.30327 7.22748,-5.07832 9.67757,-9.93296 2.13913,-4.23853 4.84183,-10.1354 2.28199,-16.4892 -0.92278,-2.29038 -3.16486,-8.30514 -9.1933,-8.49319 z"
       id="path4180-2"
       inkscape:connector-curvature="0"
       sodipodi:nodetypes="sssssss" />
    <path
       style="fill:none;fill-rule:evenodd;stroke:#ffffff;stroke-width:1.5;stroke-linecap:round;stroke-linejoin:round;stroke-miterlimit:4;stroke-dasharray:none;stroke-opacity:1;fill-opacity:1"
       d="m 551.41103,845.33033 c -20.8038,-1.5134 -38.03699,-26.22332 -40.601,-49.82634 -1.89436,-16.01633 -10.24715,-29.30313 -17.06942,-42.86877 -6.17171,-11.55619 -16.73584,-16.84593 -28.78932,-19.42404 -17.14305,-4.1802 -32.2342,-5.64256 -49.42691,-4.06531 -15.38584,1.41148 -30.26098,1.77689 -43.48847,13.09056 -13.20112,11.29104 -17.68178,36.91478 -21.78843,54.3354 -3.29237,18.47697 -8.42508,26.14458 -12.88479,44.39484"
       id="path4206-0"
       inkscape:connector-curvature="0"
       sodipodi:nodetypes="ccccsscc" />
    <path
       style="fill:none;fill-rule:evenodd;stroke:#ffffff;stroke-width:1.5;stroke-linecap:round;stroke-linejoin:round;stroke-miterlimit:4;stroke-dasharray:none;stroke-opacity:1;fill-opacity:1"
       d="m 512.09911,804.69297 c 0,0 -3.89457,17.84961 -18.54669,28.02257 -14.65214,10.17296 -31.55843,6.63453 -39.07238,13.71137 -7.51389,7.07684 -17.75158,27.58862 -17.75158,27.58862"
       id="path4478"
       inkscape:connector-curvature="0"
       sodipodi:nodetypes="cssc" />
    <path
       inkscape:connector-curvature="0"
       id="path4484"
       d="m 496.07923,756.76471 c 0,0 -0.45497,32.99646 -18.30516,47.23667 -16.91496,13.49413 -28.92577,8.4138 -36.52476,12.76031 -7.59899,4.34651 -24.97258,29.74971 -24.97258,29.74971"
       style="fill:none;fill-rule:evenodd;stroke:#ffffff;stroke-width:1.5;stroke-linecap:round;stroke-linejoin:round;stroke-miterlimit:4;stroke-dasharray:none;stroke-opacity:1;fill-opacity:1"
       sodipodi:nodetypes="cssc" />
    <path
       sodipodi:nodetypes="csssc"
       inkscape:connector-curvature="0"
       id="path4195-5"
       d="m 490.55966,747.68984 c 0,0 -10.10837,-2.51316 -19.67202,4.99296 -9.56364,7.50611 -18.33028,24.08214 -36.66061,30.65 -18.33034,6.56785 -35.42548,26.52861 -41.98436,26.73651 -26.49204,0.83977 -21.67587,-27.37953 -21.67587,-27.37953"
       style="fill:none;fill-rule:evenodd;stroke:#ffffff;stroke-width:1.5;stroke-linecap:round;stroke-linejoin:round;stroke-miterlimit:4;stroke-dasharray:none;stroke-opacity:1;fill-opacity:1" />
    <path
       style="fill:none;fill-rule:evenodd;stroke:#ffffff;stroke-width:1.5;stroke-linecap:round;stroke-linejoin:round;stroke-miterlimit:4;stroke-dasharray:none;stroke-opacity:1;fill-opacity:1"
       d="m 356.71887,784.87164 c 0.81991,-9.95233 1.98201,-14.47265 5.33361,-23.56698 3.20304,-8.75398 9.99808,-17.77839 17.4354,-21.12843 16.07877,-7.96718 31.34779,-9.12866 48.40814,-7.46951 8.31042,0.8082 12.13714,2.23426 20.29136,2.42698 3.48427,0.0823 15.14918,-0.18918 9.49326,3.7233 -3.61374,3.02589 -13.40742,4.07013 -14.42615,9.79375 -4.03335,13.03704 -8.06607,19.23603 -19.98155,28.36527 -9.86094,7.5551 -18.80869,9.24412 -30.4909,10.31931 -11.13845,1.02514 -19.99019,-6.7021 -26.52385,-3.84814 -5.57071,2.43333 -3.57381,1.99643 -6.59034,8.24243 -5.696,11.79416 -3.5735,0.72344 -2.94898,-6.85798 z"
       id="path4176-3"
       inkscape:connector-curvature="0"
       sodipodi:nodetypes="sccssccsssss" />
    <path
       style="fill:#ffffff;fill-rule:evenodd;stroke:#ffffff;stroke-width:1.5;stroke-linecap:round;stroke-linejoin:round;stroke-miterlimit:4;stroke-dasharray:none;stroke-opacity:1;fill-opacity:1"
       d="m 375.12857,781.4752 c -6.3951,-2.06202 -9.03963,-3.27716 -11.7723,-10.29746 -1.77984,-6.12125 3.78769,-18.03265 7.20286,-21.47274 8.13412,-6.76429 14.40525,-9.17137 23.77756,-12.80735 11.16882,-4.05296 20.44401,-2.31039 32.09337,-1.24232 4.92491,0.45155 11.72703,8.65225 11.67982,13.23176 -0.14309,13.87546 -15.72181,26.94279 -24.79276,31.06831 -13.71122,5.54446 -28.80537,3.9236 -38.18855,1.5198 z"
       id="path4275-1"
       inkscape:connector-curvature="0"
       sodipodi:nodetypes="ccccsscc" />
    <path
       style="fill:#000000;fill-rule:evenodd;stroke:#ffffff;stroke-width:1.5;stroke-linecap:round;stroke-linejoin:round;stroke-miterlimit:4;stroke-dasharray:none;stroke-opacity:1;fill-opacity:1"
       d="m 398.55821,737.35035 c 4.44212,-0.53544 8.81723,3.58003 11.56925,8.58818 1.73756,4.84019 1.15681,12.08338 -0.29903,16.66734 -1.70198,4.22853 -2.90482,9.02663 -7.95825,9.43228 -6.20916,0.49843 -10.08368,-8.05045 -12.21814,-13.10746 -1.74505,-4.48183 -2.37397,-12.13368 0.29274,-16.60529 1.30239,-2.18401 5.75552,-4.63056 8.61343,-4.97505 z"
       id="path4180-9-0"
       inkscape:connector-curvature="0"
       sodipodi:nodetypes="sccscss" />
    <path
       style="fill:#000000;fill-rule:evenodd;stroke:#ffffff;stroke-width:1.5;stroke-linecap:round;stroke-linejoin:round;stroke-miterlimit:4;stroke-dasharray:none;stroke-opacity:1;fill-opacity:1"
       d="m 20.619288,910.80823 c 39.580649,-11.5427 99.421142,-25.89179 140.102222,-30.2485 19.04779,-2.33152 38.13209,-4.25085 57.23354,-5.85799"
       id="path4244-8"
       inkscape:connector-curvature="0"
       sodipodi:nodetypes="ccc" />
    <path
       style="fill:#000000;fill-rule:evenodd;stroke:#ffffff;stroke-width:1.5;stroke-linecap:round;stroke-linejoin:round;stroke-miterlimit:4;stroke-dasharray:none;stroke-opacity:1;fill-opacity:1"
       d="m 27.792018,921.12912 c 31.846726,-4.50106 83.695672,-11.97044 115.352942,-18.12032 24.16417,-5.22425 48.17247,-11.4032 72.1535,-17.67338"
       id="path4246-6"
       inkscape:connector-curvature="0"
       sodipodi:nodetypes="ccc" />
    <path
       style="fill:#000000;fill-rule:evenodd;stroke:#ffffff;stroke-width:1.5;stroke-linecap:round;stroke-linejoin:round;stroke-miterlimit:4;stroke-dasharray:none;stroke-opacity:1;fill-opacity:1"
       d="m 18.759691,916.43781 c 46.473213,-10.71478 112.858149,-25.4843 159.932859,-31.91244 13.6963,-2.02618 27.40381,-3.94879 41.12209,-5.75781"
       id="path4248-4"
       inkscape:connector-curvature="0"
       sodipodi:nodetypes="ccc" />
    <path
       style="fill:#000000;fill-rule:evenodd;stroke:#ffffff;stroke-width:1.5;stroke-linecap:round;stroke-linejoin:round;stroke-miterlimit:4;stroke-dasharray:none;stroke-opacity:1;fill-opacity:1"
       d="m 40.809209,954.28121 c 34.015722,-15.09679 88.250531,-33.09297 123.330041,-44.3898 19.06416,-6.41545 38.15888,-12.70485 57.26933,-18.9264"
       id="path4250-7"
       inkscape:connector-curvature="0"
       sodipodi:nodetypes="ccc" />
    <path
       style="fill:#000000;fill-rule:evenodd;stroke:#ffffff;stroke-width:1.5;stroke-linecap:round;stroke-linejoin:round;stroke-miterlimit:4;stroke-dasharray:none;stroke-opacity:1;fill-opacity:1"
       d="m 27.260701,941.45824 c 33.566178,-7.36691 86.653049,-20.77277 119.354149,-32.32985 23.8723,-7.88228 47.84649,-15.33351 71.87149,-22.54196"
       id="path4252-0"
       inkscape:connector-curvature="0"
       sodipodi:nodetypes="ccc" />
    <path
       style="fill:#000000;fill-opacity:1;fill-rule:evenodd;stroke:#ffffff;stroke-width:1.5;stroke-linecap:round;stroke-linejoin:round;stroke-miterlimit:4;stroke-dasharray:none;stroke-opacity:1"
       d="m 549.49468,933.18696 c -26.42243,-9.28209 -58.39169,-19.2425 -85.60444,-25.01179 -34.50618,-7.31554 -63.54884,-13.61593 -98.23005,-20.02496"
       id="path4234-5"
       inkscape:connector-curvature="0"
       sodipodi:nodetypes="csc" />
    <path
       style="fill:#000000;fill-opacity:1;fill-rule:evenodd;stroke:#ffffff;stroke-width:1.5;stroke-linecap:round;stroke-linejoin:round;stroke-miterlimit:4;stroke-dasharray:none;stroke-opacity:1"
       d="m 528.77343,947.88639 c -31.13022,-11.0984 -56.48843,-22.29176 -88.17309,-30.97356 -23.72576,-6.50101 -52.94667,-14.20082 -76.53409,-21.2565"
       id="path4240-8"
       inkscape:connector-curvature="0"
       sodipodi:nodetypes="csc" />
    <path
       style="fill:#000000;fill-opacity:1;fill-rule:evenodd;stroke:#ffffff;stroke-width:1.5;stroke-linecap:round;stroke-linejoin:round;stroke-miterlimit:4;stroke-dasharray:none;stroke-opacity:1"
       d="M 496.62902,961.02213 C 453.6639,936.81391 411.76577,916.46603 353.97125,899.40939"
       id="path4236-2"
       inkscape:connector-curvature="0"
       sodipodi:nodetypes="cc" />
    <path
       style="fill:#000000;fill-opacity:1;fill-rule:evenodd;stroke:#ffffff;stroke-width:1.5;stroke-linecap:round;stroke-linejoin:round;stroke-miterlimit:4;stroke-dasharray:none;stroke-opacity:1"
       d="m 368.40243,872.01236 c 31.70106,0.5811 52.81305,1.70487 84.20217,6.86 39.88846,8.56625 69.9328,9.65376 103.60973,22.14584"
       id="path4230-7"
       inkscape:connector-curvature="0"
       sodipodi:nodetypes="ccc" />
    <path
       style="fill:#000000;fill-opacity:1;fill-rule:evenodd;stroke:#ffffff;stroke-width:1.5;stroke-linecap:round;stroke-linejoin:round;stroke-miterlimit:4;stroke-dasharray:none;stroke-opacity:1"
       d="m 368.29723,874.23117 c 31.67779,1.54308 63.53315,8.97517 94.66398,15.6926 39.84065,8.59684 76.05401,13.01171 108.96294,26.32612"
       id="path4228-7"
       inkscape:connector-curvature="0"
       sodipodi:nodetypes="csc" />
    <path
       style="fill:#000000;fill-opacity:1;fill-rule:evenodd;stroke:#ffffff;stroke-width:1.5;stroke-linecap:round;stroke-linejoin:round;stroke-miterlimit:4;stroke-dasharray:none;stroke-opacity:1"
       d="m 365.40125,880.28726 c 31.51423,2.49433 61.24313,11.41522 89.63547,16.73609 40.25462,7.54392 45.20974,6.91121 107.03193,28.18363"
       id="path4232-7"
       inkscape:connector-curvature="0"
       sodipodi:nodetypes="csc" />
    <path
       style="fill:#000000;fill-opacity:1;fill-rule:evenodd;stroke:#ffffff;stroke-width:1.5;stroke-linecap:round;stroke-linejoin:round;stroke-miterlimit:4;stroke-dasharray:none;stroke-opacity:1"
       d="m 536.06758,938.18899 c -27.9582,-10.22255 -65.15781,-21.71439 -92.943,-28.24399 -31.50939,-7.4048 -46.68105,-8.1431 -77.73006,-17.72898"
       id="path4238-8"
       inkscape:connector-curvature="0"
       sodipodi:nodetypes="csc" />
    <path
       style="fill:none;fill-rule:evenodd;stroke:#ffffff;stroke-width:1.5;stroke-linecap:round;stroke-linejoin:round;stroke-miterlimit:4;stroke-dasharray:none;stroke-opacity:1;fill-opacity:1"
       d="m 255.53322,924.08434 c 0,0 8.78559,28.4046 44.85706,29.54011 35.12755,1.10578 46.24601,-32.22244 46.24601,-32.22244"
       id="path4277-1"
       inkscape:connector-curvature="0"
       sodipodi:nodetypes="csc" />
    <path
       style="fill:none;fill-rule:evenodd;stroke:#ffffff;stroke-width:1.5;stroke-linecap:round;stroke-linejoin:round;stroke-miterlimit:4;stroke-dasharray:none;stroke-opacity:1;fill-opacity:1"
       d="m 304.22467,842.64751 c 10.63682,0.0227 19.85698,-3.66457 30.01359,0.11862 11.00535,7.29529 2.66632,10.60668 -1.45868,11.86588 -4.24225,1.06735 -3.13479,-2.51692 -6.17072,-3.53472 -4.35024,-0.41809 -9.98153,4.89822 -10.78429,10.12462 -0.5099,3.60713 1.10408,4.69156 1.17836,8.1895 -1.2644,4.36252 -5.30564,10.30966 -9.52203,11.30917 -4.33234,1.03243 -7.49968,1.72086 -11.63918,-0.22484 -3.14376,-1.8169 -6.68781,-9.03266 -6.68751,-12.79493 1.39622,-4.33878 3.42175,-5.30198 0.78221,-9.92262 -7.84327,-7.31031 -11.03529,-2.79935 -12.5408,-2.77068 -4.64192,0.22706 -7.54028,0.0192 -8.6717,-4.90844 -0.79966,-3.65263 4.12576,-4.88942 6.5491,-6.22758 8.39906,-4.07827 17.9178,-1.3936 26.88709,-1.29559 0.68828,0.0201 1.37648,0.0443 2.06456,0.0716 z"
       id="path4172-8"
       inkscape:connector-curvature="0"
       sodipodi:nodetypes="ccccccccccccccc" />
    <path
       style="fill:none;fill-rule:evenodd;stroke:#ffffff;stroke-width:1.5;stroke-linecap:round;stroke-linejoin:round;stroke-miterlimit:4;stroke-dasharray:none;stroke-opacity:1;fill-opacity:1"
       d="m 295.01788,880.01177 c 0,0 5.67835,3.83124 7.13948,-4.61314 1.46108,-8.44437 0.98517,-26.19375 0.98517,-26.19375 0,0 0.0149,18.72941 0.67523,26.81926 0.66555,8.15622 7.63758,2.42385 7.63758,2.42385"
       id="path4473"
       inkscape:connector-curvature="0"
       sodipodi:nodetypes="cscsc" />
    <path
       style="fill:none;fill-rule:evenodd;stroke:#ffffff;stroke-width:1.5;stroke-linecap:round;stroke-linejoin:round;stroke-miterlimit:4;stroke-dasharray:none;stroke-opacity:1;fill-opacity:1"
       d="m 161.10447,636.38239 c 9.92487,-9.99202 -6.91078,-15.53112 -13.23289,-17.92234 C 119.27052,607.88343 120.50417,595.45425 94.942292,576.72863 72.938444,562.06775 75.814488,554.19224 52.6349,542.1659 44.439199,541.08451 31.722471,523.41193 23.572796,528.96582 c -2.263655,9.87118 -0.703969,25.16078 1.965445,34.39984 6.405079,19.31559 7.326303,32.71431 16.335336,50.26565 6.213899,12.10586 4.927027,20.97003 7.710467,40.7267 2.360348,13.05376 3.817231,26.56953 9.289026,38.48155 3.524097,8.99472 4.23289,22.3848 13.714532,25.48465 9.911396,4.82079 15.122472,-7.93735 16.478388,-17.29011 3.076321,-10.28346 -5.745023,-23.65971 2.758813,-30.55552 10.006347,-10.6847 15.089657,-21.06407 28.898737,-23.35184 13.49934,-3.34371 27.47541,-4.63518 40.38093,-10.74435 z"
       id="path4208-0"
       inkscape:connector-curvature="0"
       sodipodi:nodetypes="ccccccsccccccc" />
    <ellipse
       style="opacity:1;fill:#000000;fill-opacity:1;fill-rule:nonzero;stroke:#ffffff;stroke-width:1.5;stroke-linecap:round;stroke-linejoin:round;stroke-miterlimit:4;stroke-dasharray:none;stroke-opacity:1"
       id="path4222-3"
       cx="395.76859"
       cy="878.82172"
       rx="3.4156296"
       ry="2.4731269" />
    <ellipse
       ry="2.4731269"
       rx="3.4156296"
       cy="877.1015"
       cx="377.57108"
       id="ellipse4469"
       style="opacity:1;fill:#000000;fill-opacity:1;fill-rule:nonzero;stroke:#ffffff;stroke-width:1.5;stroke-linecap:round;stroke-linejoin:round;stroke-miterlimit:4;stroke-dasharray:none;stroke-opacity:1" />
    <ellipse
       style="opacity:1;fill:#000000;fill-opacity:1;fill-rule:nonzero;stroke:#ffffff;stroke-width:1.5;stroke-linecap:round;stroke-linejoin:round;stroke-miterlimit:4;stroke-dasharray:none;stroke-opacity:1"
       id="path4220-1"
       cx="378.81668"
       cy="862.17834"
       rx="3.1593404"
       ry="2.9454298" />
    <ellipse
       style="opacity:1;fill:#000000;fill-opacity:1;fill-rule:nonzero;stroke:#ffffff;stroke-width:1.5;stroke-linecap:round;stroke-linejoin:round;stroke-miterlimit:4;stroke-dasharray:none;stroke-opacity:1"
       id="path4224-3"
       cx="397.03793"
       cy="854.88043"
       rx="2.8380067"
       ry="2.7882793" />
    <ellipse
       ry="2.6900032"
       rx="2.7545304"
       cy="891.50769"
       cx="353.92783"
       id="ellipse4467"
       style="opacity:1;fill:#000000;fill-opacity:1;fill-rule:nonzero;stroke:#ffffff;stroke-width:1.5;stroke-linecap:round;stroke-linejoin:round;stroke-miterlimit:4;stroke-dasharray:none;stroke-opacity:1" />
    <ellipse
       style="opacity:1;fill:#000000;fill-opacity:1;fill-rule:nonzero;stroke:#ffffff;stroke-width:1.5;stroke-linecap:round;stroke-linejoin:round;stroke-miterlimit:4;stroke-dasharray:none;stroke-opacity:1"
       id="path4226-2"
       cx="372.5238"
       cy="891.0387"
       rx="2.7545304"
       ry="2.6900032" />
    <ellipse
       style="opacity:1;fill:#000000;fill-opacity:1;fill-rule:nonzero;stroke:#ffffff;stroke-width:1.5;stroke-linecap:round;stroke-linejoin:round;stroke-miterlimit:4;stroke-dasharray:none;stroke-opacity:1"
       id="path4212-5"
       cx="237.31033"
       cy="863.7677"
       rx="3.0055635"
       ry="3.5384197" />
    <ellipse
       style="opacity:1;fill:#000000;fill-opacity:1;fill-rule:nonzero;stroke:#ffffff;stroke-width:1.5;stroke-linecap:round;stroke-linejoin:round;stroke-miterlimit:4;stroke-dasharray:none;stroke-opacity:1"
       id="path4216-7"
       cx="224.54688"
       cy="878.67273"
       rx="2.7733881"
       ry="2.6016283" />
    <ellipse
       style="opacity:1;fill:#000000;fill-opacity:1;fill-rule:nonzero;stroke:#ffffff;stroke-width:1.5;stroke-linecap:round;stroke-linejoin:round;stroke-miterlimit:4;stroke-dasharray:none;stroke-opacity:1"
       id="path4218-1"
       cx="206.30052"
       cy="878.57904"
       rx="2.4626811"
       ry="2.3776474" />
    <ellipse
       ry="3.1185157"
       rx="3.306361"
       cy="863.24719"
       cx="221.60817"
       id="ellipse4463"
       style="opacity:1;fill:#000000;fill-opacity:1;fill-rule:nonzero;stroke:#ffffff;stroke-width:1.5;stroke-linecap:round;stroke-linejoin:round;stroke-miterlimit:4;stroke-dasharray:none;stroke-opacity:1" />
    <ellipse
       style="opacity:1;fill:#000000;fill-opacity:1;fill-rule:nonzero;stroke:#ffffff;stroke-width:1.5;stroke-linecap:round;stroke-linejoin:round;stroke-miterlimit:4;stroke-dasharray:none;stroke-opacity:1"
       id="ellipse4465"
       cx="205.13744"
       cy="863.32538"
       rx="3.3165889"
       ry="2.7396128" />
    <ellipse
       style="opacity:1;fill:#000000;fill-opacity:1;fill-rule:nonzero;stroke:#ffffff;stroke-width:1.5;stroke-linecap:round;stroke-linejoin:round;stroke-miterlimit:4;stroke-dasharray:none;stroke-opacity:1"
       id="path4214-9"
       cx="210.45061"
       cy="852.92621"
       rx="3.306361"
       ry="3.1185157" />
    <path
       sodipodi:nodetypes="cssc"
       inkscape:connector-curvature="0"
       id="path4480"
       d="m 93.334615,806.21511 c 0,0 -0.207284,20.31244 16.876805,30.4825 17.08405,10.17006 36.79644,6.63265 45.55749,13.70747 8.76109,7.07482 20.698,27.58075 20.698,27.58075"
       style="fill:none;fill-rule:evenodd;stroke:#ffffff;stroke-width:1.5;stroke-linecap:round;stroke-linejoin:round;stroke-miterlimit:4;stroke-dasharray:none;stroke-opacity:1;fill-opacity:1" />
    <path
       style="fill:#000000;fill-rule:evenodd;stroke:#ffffff;stroke-width:1.5;stroke-linecap:round;stroke-linejoin:round;stroke-miterlimit:4;stroke-dasharray:none;stroke-opacity:1;fill-opacity:1"
       d="m 22.478885,892.04293 c 41.51809,-6.26272 102.912615,-16.99629 144.755075,-19.4261 20.80057,-1.54701 41.60463,-3.02816 62.40996,-4.48294"
       id="path4242-8"
       inkscape:connector-curvature="0"
       sodipodi:nodetypes="ccc" />
    <path
       style="fill:none;fill-rule:evenodd;stroke:#ffffff;stroke-width:1.5;stroke-linecap:round;stroke-linejoin:round;stroke-miterlimit:4;stroke-dasharray:none;stroke-opacity:1;fill-opacity:1"
       d="m 232.35603,780.24291 c 2.56993,11.45182 8.30753,24.56328 3.71924,35.65408 -15.52619,16.90341 -43.71193,22.48952 -52.7003,43.45179 -18.86606,33.69768 2.05319,55.59339 31.10159,60.93934 23.9349,4.40491 59.27934,6.9714 77.91788,-7.43706 6.46432,-4.99719 9.25236,-18.97134 10.14316,-24.4511 0.051,12.63029 5.09332,24.90165 16.84178,27.95983 32.24289,8.39292 72.92291,8.44082 98.94736,-9.64215 8.85019,-7.69059 19.10616,-18.41526 18.4249,-32.52409 -1.78886,-17.97544 -17.78138,-25.53594 -29.8868,-32.31927 -10.82203,-6.9137 -23.38606,-10.20933 -33.10128,-19.33569 -7.49086,-9.96145 -6.24365,-26.66776 -6.84869,-39.11631"
       id="path4475"
       inkscape:connector-curvature="0"
       sodipodi:nodetypes="cccsscsccccc" />
  </g>
</svg>
